<?xml version="1.0" standalone="no"?>
<!DOCTYPE svg PUBLIC "-//W3C//DTD SVG 20010904//EN"
 "http://www.w3.org/TR/2001/REC-SVG-20010904/DTD/svg10.dtd">
<svg version="1.0" xmlns="http://www.w3.org/2000/svg"
 width="122.000000pt" height="122.000000pt" viewBox="0 0 122.000000 122.000000"
 preserveAspectRatio="xMidYMid meet">
<metadata>
Created by potrace 1.11, written by Peter Selinger 2001-2013
</metadata>
<g transform="translate(0.000000,122.000000) scale(0.100000,-0.100000)"
fill="#000000" stroke="none">
<path d="M990 1128 c-211 -172 -353 -379 -425 -622 -16 -53 -32 -96 -36 -96
-3 0 -43 23 -89 50 -77 46 -161 80 -200 80 -10 0 -34 -38 -68 -105 -28 -58
-52 -109 -52 -113 0 -5 29 -14 64 -20 134 -25 284 -107 412 -225 l69 -64 1
181 c1 208 23 334 89 511 56 151 159 319 259 423 27 28 48 52 45 52 -2 0 -33
-24 -69 -52z"/>
<path d="M902 957 c-137 -217 -192 -412 -192 -681 0 -84 3 -174 6 -200 l7 -47
28 52 c29 52 29 54 29 228 0 272 34 445 120 617 26 52 46 94 44 94 -1 0 -20
-28 -42 -63z"/>
</g>
</svg>
